<svg xmlns="http://www.w3.org/2000/svg" xmlns:xlink="http://www.w3.org/1999/xlink" width="500" zoomAndPan="magnify" viewBox="0 0 375 374.999991" height="500" preserveAspectRatio="xMidYMid meet" version="1.0"><defs><g/><clipPath id="4bc2bdeb4f"><path d="M 129.707031 164 L 135 164 L 135 212.671875 L 129.707031 212.671875 Z M 129.707031 164 " clip-rule="nonzero"/></clipPath><clipPath id="ea6cc16458"><path d="M 138.15625 149.042969 L 245.207031 149.042969 L 245.207031 212.542969 L 138.15625 212.542969 Z M 138.15625 149.042969 " clip-rule="nonzero"/></clipPath><clipPath id="ed6a9acb73"><path d="M 142 185 L 147 185 L 147 212.671875 L 142 212.671875 Z M 142 185 " clip-rule="nonzero"/></clipPath><clipPath id="d2f53cd6d8"><path d="M 181 198 L 186 198 L 186 212.671875 L 181 212.671875 Z M 181 198 " clip-rule="nonzero"/></clipPath><clipPath id="7137d567e8"><path d="M 190 103.171875 L 235 103.171875 L 235 147 L 190 147 Z M 190 103.171875 " clip-rule="nonzero"/></clipPath><clipPath id="18367be675"><path d="M 41.429688 41.429688 L 333.929688 41.429688 L 333.929688 333.929688 L 41.429688 333.929688 Z M 41.429688 41.429688 " clip-rule="nonzero"/></clipPath></defs><rect x="-37.5" width="450" fill="#ffffff" y="-37.499999" height="449.999989" fill-opacity="1"/><rect x="-37.5" width="450" fill="#0d4269" y="-37.499999" height="449.999989" fill-opacity="1"/><g clip-path="url(#4bc2bdeb4f)"><path fill="#ffd664" d="M 133.460938 164.34375 C 132.589844 164.019531 131.621094 164.464844 131.296875 165.335938 C 130.261719 168.125 129.734375 171.058594 129.734375 174.058594 L 129.734375 210.792969 C 129.734375 211.722656 130.488281 212.476562 131.417969 212.476562 C 132.351562 212.476562 133.105469 211.722656 133.105469 210.792969 L 133.105469 174.058594 C 133.105469 171.460938 133.558594 168.921875 134.453125 166.511719 C 134.777344 165.640625 134.335938 164.671875 133.460938 164.34375 " fill-opacity="1" fill-rule="nonzero"/></g><path fill="#ffd664" d="M 171.96875 149.027344 L 167.65625 149.078125 C 166.726562 149.089844 165.980469 149.851562 165.992188 150.785156 C 166.003906 151.707031 166.753906 152.449219 167.675781 152.445312 C 167.683594 152.445312 167.691406 152.445312 167.695312 152.445312 L 172 152.394531 C 176.257812 152.398438 180.378906 153.632812 183.914062 155.96875 C 184.199219 156.15625 184.523438 156.246094 184.839844 156.246094 C 185.386719 156.246094 185.925781 155.980469 186.246094 155.492188 C 186.761719 154.714844 186.546875 153.671875 185.769531 153.15625 C 181.679688 150.453125 176.914062 149.027344 171.992188 149.027344 C 171.984375 149.027344 171.976562 149.027344 171.96875 149.027344 " fill-opacity="1" fill-rule="nonzero"/><g clip-path="url(#ea6cc16458)"><path fill="#ffd664" d="M 243.300781 164.382812 C 242.050781 161.410156 240.265625 158.734375 237.996094 156.433594 C 235.730469 154.136719 233.101562 152.328125 230.179688 151.066406 C 227.167969 149.761719 223.988281 149.097656 220.730469 149.09375 C 220.019531 149.054688 214.03125 148.867188 206.363281 152.191406 C 206.269531 152.214844 206.175781 152.246094 206.082031 152.289062 L 177.441406 165.4375 L 157.980469 152.082031 C 157.917969 152.039062 157.851562 152 157.785156 151.964844 C 155.695312 150.53125 153.035156 149.714844 150.441406 149.714844 C 147.058594 149.714844 143.953125 150.957031 141.699219 153.210938 C 139.445312 155.464844 138.203125 158.570312 138.203125 161.957031 C 138.203125 163.738281 138.625 165.570312 139.425781 167.257812 C 140.273438 169.039062 141.5 170.558594 142.980469 171.660156 C 143.015625 171.6875 143.054688 171.714844 143.09375 171.738281 C 166.386719 186.757812 168.601562 188.183594 168.839844 188.332031 C 171.300781 189.871094 174.800781 190.574219 177.011719 190.574219 C 179.277344 190.574219 181.265625 190.003906 183.554688 189.144531 C 183.566406 189.140625 183.578125 189.136719 183.585938 189.132812 L 193.722656 185.101562 L 193.722656 210.859375 C 193.722656 211.789062 194.476562 212.542969 195.40625 212.542969 C 196.335938 212.542969 197.089844 211.789062 197.089844 210.859375 L 197.089844 183.761719 L 215.421875 176.46875 C 216.289062 176.125 216.707031 175.144531 216.363281 174.28125 C 216.019531 173.417969 215.042969 172.996094 214.179688 173.339844 L 182.359375 185.996094 C 180.363281 186.742188 178.769531 187.207031 177.011719 187.207031 C 175.257812 187.207031 172.425781 186.601562 170.628906 185.480469 C 170.164062 185.183594 146.238281 169.757812 144.96875 168.941406 C 142.902344 167.390625 141.570312 164.65625 141.570312 161.957031 C 141.570312 156.816406 145.300781 153.085938 150.441406 153.085938 C 152.433594 153.085938 154.472656 153.726562 156.03125 154.851562 C 156.109375 154.90625 156.191406 154.957031 156.273438 154.996094 L 176.320312 168.753906 C 176.808594 169.089844 177.4375 169.144531 177.976562 168.894531 L 207.191406 155.488281 C 207.265625 155.46875 207.339844 155.441406 207.414062 155.40625 C 214.753906 152.152344 220.519531 152.453125 220.570312 152.457031 C 220.609375 152.460938 220.644531 152.460938 220.679688 152.460938 C 232.378906 152.460938 241.890625 162.179688 241.890625 174.125 L 241.890625 210.859375 C 241.890625 211.789062 242.644531 212.542969 243.574219 212.542969 C 244.503906 212.542969 245.257812 211.789062 245.257812 210.859375 L 245.257812 174.125 C 245.257812 170.753906 244.601562 167.476562 243.300781 164.382812 " fill-opacity="1" fill-rule="nonzero"/></g><g clip-path="url(#ed6a9acb73)"><path fill="#ffd664" d="M 144.5625 185.617188 C 143.632812 185.617188 142.878906 186.371094 142.878906 187.300781 L 142.878906 210.792969 C 142.878906 211.722656 143.632812 212.476562 144.5625 212.476562 C 145.492188 212.476562 146.246094 211.722656 146.246094 210.792969 L 146.246094 187.300781 C 146.246094 186.371094 145.492188 185.617188 144.5625 185.617188 " fill-opacity="1" fill-rule="nonzero"/></g><g clip-path="url(#d2f53cd6d8)"><path fill="#ffd664" d="M 183.597656 198.851562 C 182.667969 198.851562 181.914062 199.605469 181.914062 200.535156 L 181.914062 210.792969 C 181.914062 211.722656 182.667969 212.476562 183.597656 212.476562 C 184.527344 212.476562 185.28125 211.722656 185.28125 210.792969 L 185.28125 200.535156 C 185.28125 199.605469 184.527344 198.851562 183.597656 198.851562 " fill-opacity="1" fill-rule="nonzero"/></g><path fill="#ffd664" d="M 147.265625 147.058594 C 148.066406 146.585938 148.335938 145.554688 147.863281 144.753906 C 146.226562 141.960938 145.363281 138.769531 145.363281 135.511719 C 145.363281 125.433594 153.5625 117.230469 163.644531 117.230469 C 173.722656 117.230469 181.925781 125.433594 181.925781 135.511719 C 181.925781 138.785156 181.050781 141.996094 179.398438 144.796875 C 178.925781 145.597656 179.191406 146.628906 179.992188 147.101562 C 180.261719 147.261719 180.554688 147.335938 180.847656 147.335938 C 181.421875 147.335938 181.984375 147.039062 182.296875 146.507812 C 184.257812 143.1875 185.292969 139.386719 185.292969 135.511719 C 185.292969 132.589844 184.722656 129.753906 183.59375 127.085938 C 182.5 124.507812 180.941406 122.191406 178.953125 120.203125 C 176.964844 118.214844 174.648438 116.65625 172.070312 115.566406 C 169.402344 114.433594 166.566406 113.863281 163.644531 113.863281 C 160.722656 113.863281 157.886719 114.433594 155.214844 115.566406 C 152.636719 116.65625 150.324219 118.214844 148.335938 120.203125 C 146.347656 122.191406 144.785156 124.507812 143.695312 127.085938 C 142.566406 129.753906 141.992188 132.589844 141.992188 135.511719 C 141.992188 139.367188 143.019531 143.152344 144.960938 146.457031 C 145.429688 147.257812 146.460938 147.527344 147.265625 147.058594 " fill-opacity="1" fill-rule="nonzero"/><g clip-path="url(#7137d567e8)"><path fill="#ffd664" d="M 212.476562 106.539062 C 222.53125 106.539062 230.707031 114.71875 230.707031 124.773438 C 230.707031 128.277344 229.710938 131.679688 227.828125 134.613281 C 224.453125 139.867188 218.710938 143.003906 212.476562 143.003906 C 206.6875 143.003906 201.375 140.347656 197.890625 135.714844 C 195.503906 132.542969 194.242188 128.757812 194.242188 124.773438 C 194.242188 114.71875 202.421875 106.539062 212.476562 106.539062 Z M 202.664062 144.023438 C 205.722656 145.582031 209.023438 146.375 212.476562 146.375 C 216.160156 146.375 219.796875 145.429688 222.992188 143.644531 C 226.089844 141.914062 228.742188 139.421875 230.664062 136.433594 C 232.894531 132.957031 234.078125 128.921875 234.078125 124.773438 C 234.078125 121.855469 233.507812 119.027344 232.378906 116.363281 C 231.292969 113.789062 229.734375 111.480469 227.75 109.496094 C 225.765625 107.515625 223.457031 105.957031 220.882812 104.871094 C 218.222656 103.742188 215.390625 103.171875 212.476562 103.171875 C 209.558594 103.171875 206.730469 103.742188 204.066406 104.871094 C 201.496094 105.957031 199.183594 107.515625 197.203125 109.496094 C 195.21875 111.480469 193.660156 113.789062 192.574219 116.363281 C 191.445312 119.027344 190.875 121.855469 190.875 124.773438 C 190.875 129.492188 192.371094 133.976562 195.199219 137.738281 C 197.167969 140.363281 199.75 142.535156 202.664062 144.023438 " fill-opacity="1" fill-rule="nonzero"/></g><g clip-path="url(#18367be675)"><path fill="#ffd664" d="M 187.496094 41.429688 C 106.90625 41.429688 41.429688 106.90625 41.429688 187.496094 C 41.429688 268.089844 106.90625 333.566406 187.496094 333.566406 C 268.089844 333.566406 333.566406 268.089844 333.566406 187.496094 C 333.566406 106.90625 268.089844 41.429688 187.496094 41.429688 Z M 187.496094 47.78125 C 264.742188 47.78125 327.214844 110.253906 327.214844 187.496094 C 327.214844 264.742188 264.742188 327.214844 187.496094 327.214844 C 110.253906 327.214844 47.78125 264.742188 47.78125 187.496094 C 47.78125 110.253906 110.253906 47.78125 187.496094 47.78125 Z M 187.496094 47.78125 " fill-opacity="1" fill-rule="nonzero"/></g><g fill="#ffd664" fill-opacity="1"><g transform="translate(76.325487, 245.469886)"><g><path d="M 9.84375 0.546875 C 9.03125 0.546875 8.210938 0.488281 7.390625 0.375 C 6.566406 0.257812 5.695312 0.0625 4.78125 -0.21875 C 3.863281 -0.507812 2.863281 -0.90625 1.78125 -1.40625 C 1.363281 -1.613281 1.257812 -1.929688 1.46875 -2.359375 L 2.203125 -4.015625 C 2.410156 -4.421875 2.734375 -4.507812 3.171875 -4.28125 C 4.515625 -3.5625 5.710938 -3.078125 6.765625 -2.828125 C 7.828125 -2.578125 8.78125 -2.453125 9.625 -2.453125 C 11.101562 -2.453125 12.273438 -2.765625 13.140625 -3.390625 C 14.015625 -4.023438 14.453125 -4.921875 14.453125 -6.078125 C 14.453125 -6.742188 14.285156 -7.34375 13.953125 -7.875 C 13.628906 -8.40625 13.1875 -8.894531 12.625 -9.34375 C 12.0625 -9.789062 11.410156 -10.226562 10.671875 -10.65625 C 9.929688 -11.082031 9.144531 -11.53125 8.3125 -12 C 7.5 -12.457031 6.703125 -12.9375 5.921875 -13.4375 C 5.148438 -13.9375 4.457031 -14.492188 3.84375 -15.109375 C 3.226562 -15.722656 2.738281 -16.425781 2.375 -17.21875 C 2.007812 -18.019531 1.828125 -18.945312 1.828125 -20 C 1.828125 -21.132812 2.03125 -22.113281 2.4375 -22.9375 C 2.84375 -23.757812 3.398438 -24.4375 4.109375 -24.96875 C 4.816406 -25.5 5.625 -25.890625 6.53125 -26.140625 C 7.445312 -26.398438 8.410156 -26.53125 9.421875 -26.53125 C 10.460938 -26.53125 11.5625 -26.394531 12.71875 -26.125 C 13.882812 -25.863281 15.039062 -25.488281 16.1875 -25 C 16.625 -24.789062 16.738281 -24.476562 16.53125 -24.0625 L 15.859375 -22.421875 C 15.753906 -22.242188 15.625 -22.117188 15.46875 -22.046875 C 15.320312 -21.984375 15.140625 -22 14.921875 -22.09375 C 13.992188 -22.53125 13.054688 -22.867188 12.109375 -23.109375 C 11.160156 -23.347656 10.257812 -23.46875 9.40625 -23.46875 C 8.65625 -23.46875 7.953125 -23.359375 7.296875 -23.140625 C 6.648438 -22.921875 6.128906 -22.570312 5.734375 -22.09375 C 5.347656 -21.625 5.15625 -21.003906 5.15625 -20.234375 C 5.15625 -19.554688 5.300781 -18.945312 5.59375 -18.40625 C 5.894531 -17.875 6.296875 -17.382812 6.796875 -16.9375 C 7.304688 -16.5 7.882812 -16.082031 8.53125 -15.6875 C 9.1875 -15.300781 9.875 -14.910156 10.59375 -14.515625 C 11.269531 -14.140625 11.953125 -13.753906 12.640625 -13.359375 C 13.328125 -12.960938 13.976562 -12.53125 14.59375 -12.0625 C 15.207031 -11.601562 15.753906 -11.085938 16.234375 -10.515625 C 16.710938 -9.953125 17.085938 -9.320312 17.359375 -8.625 C 17.640625 -7.925781 17.78125 -7.140625 17.78125 -6.265625 C 17.78125 -5.128906 17.570312 -4.132812 17.15625 -3.28125 C 16.738281 -2.4375 16.160156 -1.726562 15.421875 -1.15625 C 14.691406 -0.582031 13.847656 -0.15625 12.890625 0.125 C 11.941406 0.40625 10.925781 0.546875 9.84375 0.546875 Z M 9.84375 0.546875 "/></g></g></g><g fill="#ffd664" fill-opacity="1"><g transform="translate(95.446176, 245.469886)"><g><path d="M 15.84375 0 L 3.265625 0 C 2.804688 0 2.578125 -0.226562 2.578125 -0.6875 L 2.578125 -25.296875 C 2.578125 -25.765625 2.804688 -26 3.265625 -26 L 15.84375 -26 C 16.300781 -26 16.53125 -25.765625 16.53125 -25.296875 L 16.53125 -23.59375 C 16.53125 -23.125 16.300781 -22.890625 15.84375 -22.890625 L 5.890625 -22.890625 L 5.890625 -11.34375 L 14.484375 -11.34375 C 14.941406 -11.34375 15.171875 -11.109375 15.171875 -10.640625 L 15.171875 -9 C 15.171875 -8.539062 14.941406 -8.3125 14.484375 -8.3125 L 5.890625 -8.3125 L 5.890625 -3.09375 L 15.84375 -3.09375 C 16.300781 -3.09375 16.53125 -2.863281 16.53125 -2.40625 L 16.53125 -0.6875 C 16.53125 -0.226562 16.300781 0 15.84375 0 Z M 15.84375 0 "/></g></g></g><g fill="#ffd664" fill-opacity="1"><g transform="translate(113.331639, 245.469886)"><g><path d="M 5.1875 0 L 3.296875 0 C 2.835938 0 2.609375 -0.226562 2.609375 -0.6875 L 2.609375 -25.40625 C 2.609375 -25.832031 2.691406 -26.144531 2.859375 -26.34375 C 3.023438 -26.550781 3.238281 -26.628906 3.5 -26.578125 C 3.769531 -26.535156 4.035156 -26.351562 4.296875 -26.03125 L 19.3125 -7.15625 L 19.3125 -25.296875 C 19.3125 -25.765625 19.539062 -26 20 -26 L 21.890625 -26 C 22.359375 -26 22.59375 -25.765625 22.59375 -25.296875 L 22.59375 -0.59375 C 22.59375 -0.175781 22.503906 0.128906 22.328125 0.328125 C 22.148438 0.535156 21.925781 0.613281 21.65625 0.5625 C 21.394531 0.507812 21.128906 0.320312 20.859375 0 L 5.875 -18.96875 L 5.875 -0.6875 C 5.875 -0.226562 5.644531 0 5.1875 0 Z M 5.1875 0 "/></g></g></g><g fill="#ffd664" fill-opacity="1"><g transform="translate(138.5608, 245.469886)"><g><path d="M 5.1875 0 L 3.265625 0 C 2.804688 0 2.578125 -0.226562 2.578125 -0.6875 L 2.578125 -25.296875 C 2.578125 -25.765625 2.804688 -26 3.265625 -26 L 5.1875 -26 C 5.65625 -26 5.890625 -25.765625 5.890625 -25.296875 L 5.890625 -0.6875 C 5.890625 -0.226562 5.65625 0 5.1875 0 Z M 5.1875 0 "/></g></g></g><g fill="#ffd664" fill-opacity="1"><g transform="translate(147.004366, 245.469886)"><g><path d="M 15 0.546875 C 13.5 0.546875 12.066406 0.332031 10.703125 -0.09375 C 9.347656 -0.519531 8.109375 -1.128906 6.984375 -1.921875 C 5.859375 -2.710938 4.882812 -3.664062 4.0625 -4.78125 C 3.238281 -5.90625 2.597656 -7.15625 2.140625 -8.53125 C 1.691406 -9.914062 1.46875 -11.40625 1.46875 -13 C 1.46875 -14.582031 1.691406 -16.066406 2.140625 -17.453125 C 2.597656 -18.835938 3.238281 -20.082031 4.0625 -21.1875 C 4.882812 -22.300781 5.859375 -23.253906 6.984375 -24.046875 C 8.109375 -24.847656 9.347656 -25.460938 10.703125 -25.890625 C 12.066406 -26.316406 13.5 -26.53125 15 -26.53125 C 16.5 -26.53125 17.925781 -26.316406 19.28125 -25.890625 C 20.644531 -25.460938 21.890625 -24.847656 23.015625 -24.046875 C 24.140625 -23.253906 25.113281 -22.300781 25.9375 -21.1875 C 26.757812 -20.082031 27.394531 -18.835938 27.84375 -17.453125 C 28.300781 -16.066406 28.53125 -14.582031 28.53125 -13 C 28.53125 -11.40625 28.300781 -9.914062 27.84375 -8.53125 C 27.394531 -7.15625 26.757812 -5.90625 25.9375 -4.78125 C 25.113281 -3.664062 24.140625 -2.710938 23.015625 -1.921875 C 21.890625 -1.128906 20.648438 -0.519531 19.296875 -0.09375 C 17.941406 0.332031 16.507812 0.546875 15 0.546875 Z M 15 -2.65625 C 16.40625 -2.65625 17.722656 -2.898438 18.953125 -3.390625 C 20.179688 -3.890625 21.265625 -4.597656 22.203125 -5.515625 C 23.140625 -6.441406 23.875 -7.535156 24.40625 -8.796875 C 24.9375 -10.054688 25.203125 -11.457031 25.203125 -13 C 25.203125 -14.53125 24.9375 -15.925781 24.40625 -17.1875 C 23.875 -18.457031 23.140625 -19.550781 22.203125 -20.46875 C 21.265625 -21.382812 20.179688 -22.085938 18.953125 -22.578125 C 17.722656 -23.078125 16.40625 -23.328125 15 -23.328125 C 13.582031 -23.328125 12.253906 -23.078125 11.015625 -22.578125 C 9.785156 -22.085938 8.703125 -21.382812 7.765625 -20.46875 C 6.828125 -19.550781 6.09375 -18.457031 5.5625 -17.1875 C 5.039062 -15.925781 4.78125 -14.53125 4.78125 -13 C 4.78125 -11.476562 5.046875 -10.082031 5.578125 -8.8125 C 6.109375 -7.550781 6.84375 -6.457031 7.78125 -5.53125 C 8.71875 -4.613281 9.800781 -3.90625 11.03125 -3.40625 C 12.257812 -2.90625 13.582031 -2.65625 15 -2.65625 Z M 15 -2.65625 "/></g></g></g><g fill="#ffd664" fill-opacity="1"><g transform="translate(177.022154, 245.469886)"><g><path d="M 15.78125 -9.09375 L 20 -0.828125 C 20.125 -0.578125 20.132812 -0.375 20.03125 -0.21875 C 19.9375 -0.0703125 19.757812 0 19.5 0 L 17.234375 0 C 16.867188 0 16.601562 -0.175781 16.4375 -0.53125 L 12.546875 -8.234375 C 12.191406 -8.191406 11.832031 -8.160156 11.46875 -8.140625 C 11.113281 -8.128906 10.738281 -8.125 10.34375 -8.125 L 5.859375 -8.125 L 5.859375 -0.6875 C 5.859375 -0.226562 5.625 0 5.15625 0 L 3.265625 0 C 2.804688 0 2.578125 -0.226562 2.578125 -0.6875 L 2.578125 -25.296875 C 2.578125 -25.765625 2.804688 -26 3.265625 -26 L 10.125 -26 C 13.644531 -26 16.222656 -25.234375 17.859375 -23.703125 C 19.492188 -22.179688 20.3125 -19.976562 20.3125 -17.09375 C 20.3125 -13.070312 18.800781 -10.40625 15.78125 -9.09375 Z M 5.859375 -11.21875 L 9.921875 -11.21875 C 10.265625 -11.21875 10.675781 -11.226562 11.15625 -11.25 C 11.644531 -11.269531 12.15625 -11.332031 12.6875 -11.4375 C 13.226562 -11.550781 13.757812 -11.726562 14.28125 -11.96875 C 14.800781 -12.21875 15.269531 -12.554688 15.6875 -12.984375 C 16.101562 -13.410156 16.4375 -13.957031 16.6875 -14.625 C 16.945312 -15.289062 17.078125 -16.109375 17.078125 -17.078125 C 17.078125 -18.035156 16.953125 -18.847656 16.703125 -19.515625 C 16.453125 -20.179688 16.117188 -20.726562 15.703125 -21.15625 C 15.285156 -21.582031 14.816406 -21.910156 14.296875 -22.140625 C 13.785156 -22.378906 13.265625 -22.550781 12.734375 -22.65625 C 12.203125 -22.769531 11.6875 -22.835938 11.1875 -22.859375 C 10.695312 -22.878906 10.273438 -22.890625 9.921875 -22.890625 L 5.859375 -22.890625 Z M 5.859375 -11.21875 "/></g></g></g><g fill="#ffd664" fill-opacity="1"><g transform="translate(199.104016, 245.469886)"><g/></g></g><g fill="#ffd664" fill-opacity="1"><g transform="translate(209.036627, 245.469886)"><g><path d="M 14.953125 0.546875 C 13.460938 0.546875 12.046875 0.332031 10.703125 -0.09375 C 9.359375 -0.519531 8.125 -1.125 7 -1.90625 C 5.875 -2.695312 4.894531 -3.648438 4.0625 -4.765625 C 3.238281 -5.878906 2.597656 -7.128906 2.140625 -8.515625 C 1.691406 -9.898438 1.46875 -11.394531 1.46875 -13 C 1.46875 -14.601562 1.695312 -16.097656 2.15625 -17.484375 C 2.613281 -18.867188 3.253906 -20.113281 4.078125 -21.21875 C 4.898438 -22.332031 5.875 -23.285156 7 -24.078125 C 8.125 -24.867188 9.351562 -25.472656 10.6875 -25.890625 C 12.03125 -26.316406 13.441406 -26.53125 14.921875 -26.53125 C 16.804688 -26.53125 18.554688 -26.195312 20.171875 -25.53125 C 21.785156 -24.875 23.195312 -23.96875 24.40625 -22.8125 C 24.570312 -22.65625 24.644531 -22.492188 24.625 -22.328125 C 24.613281 -22.160156 24.53125 -22 24.375 -21.84375 L 22.859375 -20.640625 C 22.546875 -20.347656 22.222656 -20.351562 21.890625 -20.65625 C 20.972656 -21.488281 19.921875 -22.140625 18.734375 -22.609375 C 17.554688 -23.085938 16.285156 -23.328125 14.921875 -23.328125 C 13.535156 -23.328125 12.226562 -23.078125 11 -22.578125 C 9.78125 -22.085938 8.703125 -21.382812 7.765625 -20.46875 C 6.835938 -19.5625 6.109375 -18.472656 5.578125 -17.203125 C 5.046875 -15.941406 4.78125 -14.550781 4.78125 -13.03125 C 4.78125 -11.5 5.046875 -10.097656 5.578125 -8.828125 C 6.109375 -7.554688 6.84375 -6.457031 7.78125 -5.53125 C 8.71875 -4.613281 9.800781 -3.90625 11.03125 -3.40625 C 12.257812 -2.90625 13.582031 -2.65625 15 -2.65625 C 16.320312 -2.65625 17.578125 -2.894531 18.765625 -3.375 C 19.953125 -3.851562 20.992188 -4.503906 21.890625 -5.328125 C 22.210938 -5.617188 22.535156 -5.625 22.859375 -5.34375 L 24.375 -4.1875 C 24.738281 -3.851562 24.769531 -3.535156 24.46875 -3.234375 C 23.269531 -2.066406 21.851562 -1.144531 20.21875 -0.46875 C 18.59375 0.207031 16.835938 0.546875 14.953125 0.546875 Z M 14.953125 0.546875 "/></g></g></g><g fill="#ffd664" fill-opacity="1"><g transform="translate(234.756491, 245.469886)"><g><path d="M 12.609375 -26 L 23.359375 -0.796875 C 23.453125 -0.554688 23.453125 -0.363281 23.359375 -0.21875 C 23.265625 -0.0703125 23.085938 0 22.828125 0 L 20.671875 0 C 20.492188 0 20.332031 -0.0390625 20.1875 -0.125 C 20.050781 -0.207031 19.953125 -0.34375 19.890625 -0.53125 L 17.984375 -5.15625 L 5.9375 -5.15625 L 4.046875 -0.53125 C 3.898438 -0.175781 3.628906 0 3.234375 0 L 1.09375 0 C 0.832031 0 0.65625 -0.0703125 0.5625 -0.21875 C 0.46875 -0.363281 0.472656 -0.554688 0.578125 -0.796875 L 11.328125 -26 C 11.484375 -26.375 11.695312 -26.5625 11.96875 -26.5625 C 12.238281 -26.5625 12.453125 -26.375 12.609375 -26 Z M 11.96875 -19.890625 L 7.125 -8.0625 L 16.796875 -8.0625 Z M 11.96875 -19.890625 "/></g></g></g><g fill="#ffd664" fill-opacity="1"><g transform="translate(258.682722, 245.469886)"><g><path d="M 15.78125 -9.09375 L 20 -0.828125 C 20.125 -0.578125 20.132812 -0.375 20.03125 -0.21875 C 19.9375 -0.0703125 19.757812 0 19.5 0 L 17.234375 0 C 16.867188 0 16.601562 -0.175781 16.4375 -0.53125 L 12.546875 -8.234375 C 12.191406 -8.191406 11.832031 -8.160156 11.46875 -8.140625 C 11.113281 -8.128906 10.738281 -8.125 10.34375 -8.125 L 5.859375 -8.125 L 5.859375 -0.6875 C 5.859375 -0.226562 5.625 0 5.15625 0 L 3.265625 0 C 2.804688 0 2.578125 -0.226562 2.578125 -0.6875 L 2.578125 -25.296875 C 2.578125 -25.765625 2.804688 -26 3.265625 -26 L 10.125 -26 C 13.644531 -26 16.222656 -25.234375 17.859375 -23.703125 C 19.492188 -22.179688 20.3125 -19.976562 20.3125 -17.09375 C 20.3125 -13.070312 18.800781 -10.40625 15.78125 -9.09375 Z M 5.859375 -11.21875 L 9.921875 -11.21875 C 10.265625 -11.21875 10.675781 -11.226562 11.15625 -11.25 C 11.644531 -11.269531 12.15625 -11.332031 12.6875 -11.4375 C 13.226562 -11.550781 13.757812 -11.726562 14.28125 -11.96875 C 14.800781 -12.21875 15.269531 -12.554688 15.6875 -12.984375 C 16.101562 -13.410156 16.4375 -13.957031 16.6875 -14.625 C 16.945312 -15.289062 17.078125 -16.109375 17.078125 -17.078125 C 17.078125 -18.035156 16.953125 -18.847656 16.703125 -19.515625 C 16.453125 -20.179688 16.117188 -20.726562 15.703125 -21.15625 C 15.285156 -21.582031 14.816406 -21.910156 14.296875 -22.140625 C 13.785156 -22.378906 13.265625 -22.550781 12.734375 -22.65625 C 12.203125 -22.769531 11.6875 -22.835938 11.1875 -22.859375 C 10.695312 -22.878906 10.273438 -22.890625 9.921875 -22.890625 L 5.859375 -22.890625 Z M 5.859375 -11.21875 "/></g></g></g><g fill="#ffd664" fill-opacity="1"><g transform="translate(280.764594, 245.469886)"><g><path d="M 15.84375 0 L 3.265625 0 C 2.804688 0 2.578125 -0.226562 2.578125 -0.6875 L 2.578125 -25.296875 C 2.578125 -25.765625 2.804688 -26 3.265625 -26 L 15.84375 -26 C 16.300781 -26 16.53125 -25.765625 16.53125 -25.296875 L 16.53125 -23.59375 C 16.53125 -23.125 16.300781 -22.890625 15.84375 -22.890625 L 5.890625 -22.890625 L 5.890625 -11.34375 L 14.484375 -11.34375 C 14.941406 -11.34375 15.171875 -11.109375 15.171875 -10.640625 L 15.171875 -9 C 15.171875 -8.539062 14.941406 -8.3125 14.484375 -8.3125 L 5.890625 -8.3125 L 5.890625 -3.09375 L 15.84375 -3.09375 C 16.300781 -3.09375 16.53125 -2.863281 16.53125 -2.40625 L 16.53125 -0.6875 C 16.53125 -0.226562 16.300781 0 15.84375 0 Z M 15.84375 0 "/></g></g></g><g fill="#ffffff" fill-opacity="1"><g transform="translate(148.336709, 268.461227)"><g><path d="M 4.328125 0.234375 C 3.972656 0.234375 3.613281 0.207031 3.25 0.15625 C 2.882812 0.113281 2.5 0.03125 2.09375 -0.09375 C 1.695312 -0.226562 1.257812 -0.40625 0.78125 -0.625 C 0.59375 -0.71875 0.546875 -0.851562 0.640625 -1.03125 L 0.96875 -1.765625 C 1.0625 -1.941406 1.203125 -1.984375 1.390625 -1.890625 C 1.984375 -1.566406 2.507812 -1.347656 2.96875 -1.234375 C 3.4375 -1.128906 3.859375 -1.078125 4.234375 -1.078125 C 4.890625 -1.078125 5.40625 -1.210938 5.78125 -1.484375 C 6.164062 -1.765625 6.359375 -2.160156 6.359375 -2.671875 C 6.359375 -2.960938 6.285156 -3.222656 6.140625 -3.453125 C 5.992188 -3.691406 5.796875 -3.910156 5.546875 -4.109375 C 5.304688 -4.304688 5.019531 -4.5 4.6875 -4.6875 C 4.363281 -4.875 4.019531 -5.070312 3.65625 -5.28125 C 3.300781 -5.476562 2.953125 -5.6875 2.609375 -5.90625 C 2.265625 -6.125 1.957031 -6.367188 1.6875 -6.640625 C 1.414062 -6.910156 1.195312 -7.222656 1.03125 -7.578125 C 0.875 -7.929688 0.796875 -8.335938 0.796875 -8.796875 C 0.796875 -9.296875 0.882812 -9.726562 1.0625 -10.09375 C 1.25 -10.457031 1.5 -10.753906 1.8125 -10.984375 C 2.125 -11.222656 2.476562 -11.394531 2.875 -11.5 C 3.28125 -11.613281 3.703125 -11.671875 4.140625 -11.671875 C 4.597656 -11.671875 5.082031 -11.613281 5.59375 -11.5 C 6.101562 -11.382812 6.613281 -11.21875 7.125 -11 C 7.3125 -10.90625 7.363281 -10.769531 7.28125 -10.59375 L 6.984375 -9.859375 C 6.929688 -9.785156 6.867188 -9.734375 6.796875 -9.703125 C 6.734375 -9.671875 6.65625 -9.675781 6.5625 -9.71875 C 6.15625 -9.914062 5.742188 -10.066406 5.328125 -10.171875 C 4.910156 -10.273438 4.515625 -10.328125 4.140625 -10.328125 C 3.804688 -10.328125 3.492188 -10.273438 3.203125 -10.171875 C 2.921875 -10.078125 2.691406 -9.925781 2.515625 -9.71875 C 2.347656 -9.507812 2.265625 -9.238281 2.265625 -8.90625 C 2.265625 -8.601562 2.328125 -8.332031 2.453125 -8.09375 C 2.585938 -7.863281 2.765625 -7.648438 2.984375 -7.453125 C 3.210938 -7.253906 3.46875 -7.070312 3.75 -6.90625 C 4.039062 -6.738281 4.34375 -6.566406 4.65625 -6.390625 C 4.957031 -6.222656 5.257812 -6.050781 5.5625 -5.875 C 5.863281 -5.695312 6.148438 -5.503906 6.421875 -5.296875 C 6.691406 -5.097656 6.929688 -4.875 7.140625 -4.625 C 7.359375 -4.382812 7.523438 -4.109375 7.640625 -3.796875 C 7.765625 -3.492188 7.828125 -3.144531 7.828125 -2.75 C 7.828125 -2.257812 7.734375 -1.828125 7.546875 -1.453125 C 7.367188 -1.078125 7.117188 -0.765625 6.796875 -0.515625 C 6.472656 -0.265625 6.097656 -0.078125 5.671875 0.046875 C 5.253906 0.171875 4.804688 0.234375 4.328125 0.234375 Z M 4.328125 0.234375 "/></g></g></g><g fill="#ffffff" fill-opacity="1"><g transform="translate(158.486577, 268.461227)"><g><path d="M 4.96875 0.234375 C 4.4375 0.234375 3.929688 0.160156 3.453125 0.015625 C 2.984375 -0.128906 2.566406 -0.359375 2.203125 -0.671875 C 1.847656 -0.984375 1.566406 -1.382812 1.359375 -1.875 C 1.148438 -2.363281 1.046875 -2.953125 1.046875 -3.640625 L 1.046875 -11.125 C 1.046875 -11.332031 1.148438 -11.4375 1.359375 -11.4375 L 2.21875 -11.4375 C 2.425781 -11.4375 2.53125 -11.332031 2.53125 -11.125 L 2.53125 -3.78125 C 2.53125 -3.125 2.628906 -2.601562 2.828125 -2.21875 C 3.035156 -1.832031 3.320312 -1.554688 3.6875 -1.390625 C 4.050781 -1.222656 4.476562 -1.140625 4.96875 -1.140625 C 5.46875 -1.140625 5.898438 -1.222656 6.265625 -1.390625 C 6.640625 -1.554688 6.925781 -1.832031 7.125 -2.21875 C 7.332031 -2.601562 7.4375 -3.125 7.4375 -3.78125 L 7.4375 -11.125 C 7.4375 -11.332031 7.535156 -11.4375 7.734375 -11.4375 L 8.59375 -11.4375 C 8.800781 -11.4375 8.90625 -11.332031 8.90625 -11.125 L 8.90625 -3.640625 C 8.90625 -2.953125 8.800781 -2.363281 8.59375 -1.875 C 8.394531 -1.382812 8.113281 -0.984375 7.75 -0.671875 C 7.382812 -0.359375 6.960938 -0.128906 6.484375 0.015625 C 6.015625 0.160156 5.507812 0.234375 4.96875 0.234375 Z M 4.96875 0.234375 "/></g></g></g><g fill="#ffffff" fill-opacity="1"><g transform="translate(170.177097, 268.461227)"><g><path d="M 2.265625 0 L 1.4375 0 C 1.226562 0 1.125 -0.101562 1.125 -0.3125 L 1.125 -11.125 C 1.125 -11.332031 1.226562 -11.4375 1.4375 -11.4375 L 4.453125 -11.4375 C 6.003906 -11.4375 7.140625 -11.097656 7.859375 -10.421875 C 8.578125 -9.753906 8.9375 -8.785156 8.9375 -7.515625 C 8.9375 -6.210938 8.570312 -5.226562 7.84375 -4.5625 C 7.113281 -3.90625 6.015625 -3.578125 4.546875 -3.578125 L 2.578125 -3.578125 L 2.578125 -0.3125 C 2.578125 -0.101562 2.472656 0 2.265625 0 Z M 2.578125 -10.078125 L 2.578125 -4.9375 L 4.359375 -4.9375 C 4.515625 -4.9375 4.695312 -4.941406 4.90625 -4.953125 C 5.125 -4.960938 5.347656 -4.988281 5.578125 -5.03125 C 5.816406 -5.082031 6.050781 -5.160156 6.28125 -5.265625 C 6.507812 -5.367188 6.710938 -5.515625 6.890625 -5.703125 C 7.078125 -5.898438 7.226562 -6.144531 7.34375 -6.4375 C 7.457031 -6.726562 7.515625 -7.085938 7.515625 -7.515625 C 7.515625 -7.929688 7.457031 -8.285156 7.34375 -8.578125 C 7.238281 -8.878906 7.09375 -9.125 6.90625 -9.3125 C 6.726562 -9.5 6.523438 -9.644531 6.296875 -9.75 C 6.066406 -9.851562 5.832031 -9.925781 5.59375 -9.96875 C 5.363281 -10.019531 5.140625 -10.050781 4.921875 -10.0625 C 4.710938 -10.070312 4.523438 -10.078125 4.359375 -10.078125 Z M 2.578125 -10.078125 "/></g></g></g><g fill="#ffffff" fill-opacity="1"><g transform="translate(181.398723, 268.461227)"><g><path d="M 2.265625 0 L 1.4375 0 C 1.226562 0 1.125 -0.101562 1.125 -0.3125 L 1.125 -11.125 C 1.125 -11.332031 1.226562 -11.4375 1.4375 -11.4375 L 4.453125 -11.4375 C 6.003906 -11.4375 7.140625 -11.097656 7.859375 -10.421875 C 8.578125 -9.753906 8.9375 -8.785156 8.9375 -7.515625 C 8.9375 -6.210938 8.570312 -5.226562 7.84375 -4.5625 C 7.113281 -3.90625 6.015625 -3.578125 4.546875 -3.578125 L 2.578125 -3.578125 L 2.578125 -0.3125 C 2.578125 -0.101562 2.472656 0 2.265625 0 Z M 2.578125 -10.078125 L 2.578125 -4.9375 L 4.359375 -4.9375 C 4.515625 -4.9375 4.695312 -4.941406 4.90625 -4.953125 C 5.125 -4.960938 5.347656 -4.988281 5.578125 -5.03125 C 5.816406 -5.082031 6.050781 -5.160156 6.28125 -5.265625 C 6.507812 -5.367188 6.710938 -5.515625 6.890625 -5.703125 C 7.078125 -5.898438 7.226562 -6.144531 7.34375 -6.4375 C 7.457031 -6.726562 7.515625 -7.085938 7.515625 -7.515625 C 7.515625 -7.929688 7.457031 -8.285156 7.34375 -8.578125 C 7.238281 -8.878906 7.09375 -9.125 6.90625 -9.3125 C 6.726562 -9.5 6.523438 -9.644531 6.296875 -9.75 C 6.066406 -9.851562 5.832031 -9.925781 5.59375 -9.96875 C 5.363281 -10.019531 5.140625 -10.050781 4.921875 -10.0625 C 4.710938 -10.070312 4.523438 -10.078125 4.359375 -10.078125 Z M 2.578125 -10.078125 "/></g></g></g><g fill="#ffffff" fill-opacity="1"><g transform="translate(192.620349, 268.461227)"><g><path d="M 6.59375 0.234375 C 5.9375 0.234375 5.304688 0.144531 4.703125 -0.03125 C 4.109375 -0.21875 3.5625 -0.488281 3.0625 -0.84375 C 2.570312 -1.195312 2.144531 -1.617188 1.78125 -2.109375 C 1.425781 -2.597656 1.144531 -3.144531 0.9375 -3.75 C 0.738281 -4.363281 0.640625 -5.019531 0.640625 -5.71875 C 0.640625 -6.414062 0.738281 -7.066406 0.9375 -7.671875 C 1.144531 -8.285156 1.425781 -8.835938 1.78125 -9.328125 C 2.144531 -9.816406 2.570312 -10.234375 3.0625 -10.578125 C 3.5625 -10.929688 4.109375 -11.203125 4.703125 -11.390625 C 5.304688 -11.578125 5.9375 -11.671875 6.59375 -11.671875 C 7.257812 -11.671875 7.890625 -11.578125 8.484375 -11.390625 C 9.078125 -11.203125 9.625 -10.929688 10.125 -10.578125 C 10.625 -10.234375 11.050781 -9.816406 11.40625 -9.328125 C 11.769531 -8.835938 12.050781 -8.285156 12.25 -7.671875 C 12.445312 -7.066406 12.546875 -6.414062 12.546875 -5.71875 C 12.546875 -5.019531 12.445312 -4.363281 12.25 -3.75 C 12.050781 -3.144531 11.769531 -2.597656 11.40625 -2.109375 C 11.050781 -1.617188 10.625 -1.195312 10.125 -0.84375 C 9.625 -0.488281 9.078125 -0.21875 8.484375 -0.03125 C 7.890625 0.144531 7.257812 0.234375 6.59375 0.234375 Z M 6.59375 -1.171875 C 7.21875 -1.171875 7.800781 -1.28125 8.34375 -1.5 C 8.882812 -1.71875 9.359375 -2.023438 9.765625 -2.421875 C 10.179688 -2.828125 10.503906 -3.304688 10.734375 -3.859375 C 10.972656 -4.421875 11.09375 -5.039062 11.09375 -5.71875 C 11.09375 -6.394531 10.972656 -7.007812 10.734375 -7.5625 C 10.503906 -8.125 10.179688 -8.601562 9.765625 -9 C 9.359375 -9.40625 8.882812 -9.71875 8.34375 -9.9375 C 7.800781 -10.15625 7.21875 -10.265625 6.59375 -10.265625 C 5.976562 -10.265625 5.394531 -10.15625 4.84375 -9.9375 C 4.300781 -9.71875 3.820312 -9.40625 3.40625 -9 C 3 -8.601562 2.679688 -8.125 2.453125 -7.5625 C 2.222656 -7.007812 2.109375 -6.394531 2.109375 -5.71875 C 2.109375 -5.050781 2.222656 -4.4375 2.453125 -3.875 C 2.691406 -3.320312 3.015625 -2.84375 3.421875 -2.4375 C 3.835938 -2.03125 4.316406 -1.71875 4.859375 -1.5 C 5.398438 -1.28125 5.976562 -1.171875 6.59375 -1.171875 Z M 6.59375 -1.171875 "/></g></g></g><g fill="#ffffff" fill-opacity="1"><g transform="translate(207.563352, 268.461227)"><g><path d="M 6.953125 -4 L 8.796875 -0.359375 C 8.859375 -0.253906 8.863281 -0.164062 8.8125 -0.09375 C 8.769531 -0.03125 8.691406 0 8.578125 0 L 7.578125 0 C 7.421875 0 7.304688 -0.078125 7.234375 -0.234375 L 5.515625 -3.625 C 5.359375 -3.601562 5.203125 -3.585938 5.046875 -3.578125 C 4.890625 -3.578125 4.722656 -3.578125 4.546875 -3.578125 L 2.578125 -3.578125 L 2.578125 -0.3125 C 2.578125 -0.101562 2.472656 0 2.265625 0 L 1.4375 0 C 1.226562 0 1.125 -0.101562 1.125 -0.3125 L 1.125 -11.125 C 1.125 -11.332031 1.226562 -11.4375 1.4375 -11.4375 L 4.453125 -11.4375 C 6.003906 -11.4375 7.140625 -11.097656 7.859375 -10.421875 C 8.578125 -9.753906 8.9375 -8.785156 8.9375 -7.515625 C 8.9375 -5.753906 8.273438 -4.582031 6.953125 -4 Z M 2.578125 -4.9375 L 4.359375 -4.9375 C 4.515625 -4.9375 4.695312 -4.941406 4.90625 -4.953125 C 5.125 -4.960938 5.347656 -4.988281 5.578125 -5.03125 C 5.816406 -5.082031 6.050781 -5.160156 6.28125 -5.265625 C 6.507812 -5.367188 6.710938 -5.515625 6.890625 -5.703125 C 7.078125 -5.898438 7.226562 -6.144531 7.34375 -6.4375 C 7.457031 -6.726562 7.515625 -7.085938 7.515625 -7.515625 C 7.515625 -7.929688 7.457031 -8.285156 7.34375 -8.578125 C 7.238281 -8.878906 7.09375 -9.125 6.90625 -9.3125 C 6.726562 -9.5 6.523438 -9.644531 6.296875 -9.75 C 6.066406 -9.851562 5.832031 -9.925781 5.59375 -9.96875 C 5.363281 -10.019531 5.140625 -10.050781 4.921875 -10.0625 C 4.710938 -10.070312 4.523438 -10.078125 4.359375 -10.078125 L 2.578125 -10.078125 Z M 2.578125 -4.9375 "/></g></g></g><g fill="#ffffff" fill-opacity="1"><g transform="translate(219.015701, 268.461227)"><g><path d="M 4.234375 0 L 3.375 0 C 3.175781 0 3.078125 -0.101562 3.078125 -0.3125 L 3.078125 -10.078125 L 0.484375 -10.078125 C 0.273438 -10.078125 0.171875 -10.175781 0.171875 -10.375 L 0.171875 -11.125 C 0.171875 -11.332031 0.273438 -11.4375 0.484375 -11.4375 L 7.140625 -11.4375 C 7.335938 -11.4375 7.4375 -11.332031 7.4375 -11.125 L 7.4375 -10.375 C 7.4375 -10.175781 7.335938 -10.078125 7.140625 -10.078125 L 4.546875 -10.078125 L 4.546875 -0.3125 C 4.546875 -0.101562 4.441406 0 4.234375 0 Z M 4.234375 0 "/></g></g></g></svg>